<svg aria-hidden="true" style="position: absolute; width: 0; height: 0; overflow: hidden;" version="1.1" xmlns="http://www.w3.org/2000/svg" xmlns:xlink="http://www.w3.org/1999/xlink">
<def>
<!-- <symbol id="icon-envelope-svgrepo-com-1" viewBox="0 0 32 32"> -->
<symbol id="icon-envelope-svgrepo-com-1" viewBox="0 0 32 32">
<path fill="#e3dfd6" style="fill: var(--color1, #e3dfd6)" d="M0 4.69v22.621h32v-22.621z"></path>
<path fill="#352b2a" style="fill: var(--color2, #352b2a)" d="M23.724 8.552h4.414v4.414h-4.414z"></path>
<path fill="#bc4b99" style="fill: var(--color3, #bc4b99)" d="M14.897 11.31h-11.034c-0.305 0-0.552-0.247-0.552-0.552s0.247-0.552 0.552-0.552v0h11.034c0.305 0 0.552 0.247 0.552 0.552s-0.247 0.552-0.552 0.552v0zM14.897 14.069h-11.034c-0.305 0-0.552-0.247-0.552-0.552s0.247-0.552 0.552-0.552v0h11.034c0.305 0 0.552 0.247 0.552 0.552s-0.247 0.552-0.552 0.552v0zM8.276 8.552h-4.414c-0.305 0-0.552-0.247-0.552-0.552s0.247-0.552 0.552-0.552v0h4.414c0.305 0 0.552 0.247 0.552 0.552s-0.247 0.552-0.552 0.552v0z"></path>
<path fill="#9b2466" style="fill: var(--color4, #9b2466)" d="M15.448 17.931c-1.826 0-3.31 1.485-3.31 3.31s1.485 3.31 3.31 3.31 3.31-1.485 3.31-3.31-1.485-3.31-3.31-3.31zM15.448 23.448c-1.217 0-2.207-0.99-2.207-2.207s0.99-2.207 2.207-2.207 2.207 0.99 2.207 2.207-0.99 2.207-2.207 2.207zM20.287 19.939c0.377-0.455 0.981-0.455 1.358 0 0.401 0.484 0.944 0.751 1.528 0.751s1.127-0.266 1.528-0.751c0.377-0.455 0.981-0.455 1.358 0 0.401 0.484 0.944 0.751 1.528 0.751s1.127-0.266 1.528-0.751c0.082-0.096 0.132-0.221 0.132-0.358 0-0.305-0.247-0.552-0.552-0.552-0.173 0-0.327 0.080-0.429 0.204l-0.001 0.001c-0.377 0.455-0.981 0.455-1.358 0-0.402-0.485-0.945-0.751-1.528-0.751s-1.127 0.266-1.528 0.751c-0.377 0.455-0.981 0.455-1.358 0-0.401-0.484-0.944-0.751-1.528-0.751s-1.127 0.266-1.528 0.751c-0.079 0.095-0.127 0.218-0.127 0.353 0 0.305 0.247 0.552 0.552 0.552 0.17 0 0.323-0.077 0.424-0.199l0.001-0.001zM28.265 22.544c-0.377 0.455-0.981 0.455-1.358 0-0.401-0.484-0.944-0.751-1.528-0.751s-1.127 0.266-1.528 0.751c-0.377 0.455-0.981 0.455-1.358 0-0.401-0.484-0.944-0.751-1.528-0.751s-1.127 0.266-1.528 0.751c-0.082 0.096-0.132 0.221-0.132 0.358 0 0.305 0.247 0.552 0.552 0.552 0.173 0 0.327-0.080 0.429-0.204l0.001-0.001c0.377-0.455 0.981-0.455 1.358 0 0.402 0.485 0.945 0.751 1.528 0.751s1.127-0.266 1.528-0.751c0.377-0.455 0.981-0.455 1.358 0 0.401 0.484 0.944 0.751 1.528 0.751s1.127-0.266 1.528-0.751c0.079-0.095 0.127-0.218 0.127-0.353 0-0.305-0.247-0.552-0.552-0.552-0.17 0-0.323 0.077-0.424 0.199l-0.001 0.001z"></path>
</symbol>

<symbol id="icon-documenttextpicture-svgrepo-com-1" viewBox="0 0 32 32">
<path fill="#fffdf5" style="fill: var(--color5, #fffdf5)" d="M27.106 31.725h-22.212c-0.746 0-1.35-0.604-1.35-1.35v-28.792c0-0.746 0.604-1.35 1.35-1.35h16.439l7.123 7.046v23.096c0 0.746-0.604 1.35-1.35 1.35z"></path>
<path fill="#ffef9e" style="fill: var(--color6, #ffef9e)" d="M18.686 4.983h-4.665c-0.273 0-0.494-0.221-0.494-0.494s0.221-0.494 0.494-0.494v0h4.665c0.273 0 0.494 0.221 0.494 0.494s-0.221 0.494-0.494 0.494v0zM17.399 7.889c0-0.273-0.221-0.494-0.494-0.494v0h-2.884c-0.273 0-0.494 0.221-0.494 0.494s0.221 0.494 0.494 0.494h2.884c0.273 0 0.494-0.221 0.494-0.494v0zM24.685 11.288c0-0.273-0.221-0.494-0.494-0.494v0h-10.17c-0.273 0-0.494 0.221-0.494 0.494s0.221 0.494 0.494 0.494h10.17c0.273 0 0.494-0.221 0.494-0.494v0zM23.585 14.688c0-0.273-0.221-0.494-0.494-0.494v0h-16.431c-0.273 0-0.494 0.221-0.494 0.494s0.221 0.494 0.494 0.494h16.431c0.273 0 0.494-0.221 0.494-0.494 0-0 0-0 0-0v0zM16.981 18.087c0-0.273-0.221-0.494-0.494-0.494v0h-9.827c-0.273 0-0.494 0.221-0.494 0.494s0.221 0.494 0.494 0.494h9.827c0 0 0 0 0 0 0.273 0 0.494-0.221 0.494-0.494 0-0 0-0 0-0v0zM24.685 21.487c0-0.273-0.221-0.494-0.494-0.494v0h-17.531c-0.273 0-0.494 0.221-0.494 0.494s0.221 0.494 0.494 0.494h17.531c0.273 0 0.494-0.221 0.494-0.494v0zM24.685 24.887c0-0.273-0.221-0.494-0.494-0.494v0h-17.531c-0.273 0-0.494 0.221-0.494 0.494s0.221 0.494 0.494 0.494h17.531c0.273 0 0.494-0.221 0.494-0.494v0zM24.685 28.286c0-0.273-0.221-0.494-0.494-0.494v0h-17.531c-0.273 0-0.494 0.221-0.494 0.494s0.221 0.494 0.494 0.494h17.531c0.273 0 0.494-0.221 0.494-0.494v0z"></path>
<path fill="#fffcd6" style="fill: var(--color7, #fffcd6)" d="M21.333 0.232l7.046 7.046h-5.549c-0.827 0-1.498-0.671-1.498-1.498v-5.548z"></path>
<path fill="#ffcce7" style="fill: var(--color8, #ffcce7)" d="M6.638 4.051h5.286c0.28 0 0.508 0.227 0.508 0.508v0 6.659c-0 0.28-0.227 0.508-0.508 0.508h-5.286c-0.28-0-0.508-0.227-0.508-0.508v0-6.659c0-0.28 0.227-0.508 0.508-0.508v0z"></path>
</symbol>

<symbol id="icon-envelope-svgrepo-com-1-1" viewBox="0 0 32 32">
<path fill="#e95853" style="fill: var(--color1, #e95853)" d="M14.973 0.404l-14.973 13.94v0.024l32-0.024-14.973-13.94c-0.268-0.25-0.63-0.404-1.027-0.404s-0.759 0.154-1.028 0.405l0.001-0.001z"></path>
<path fill="#c64645" style="fill: var(--color2, #c64645)" d="M0 14.368h32v17.632h-32z"></path>
<path fill="#d75a4a" style="fill: var(--color3, #d75a4a)" d="M0.050 14.372l31.73 17.496-0.034 0.132h-31.675c-0.039-0-0.071-0.032-0.071-0.071v-17.527c0-0.026 0.028-0.042 0.050-0.030z"></path>
<path fill="#ed7161" style="fill: var(--color4, #ed7161)" d="M31.95 14.372l-15.95 8.794 15.78 8.701-0.034 0.132h0.183c0.039-0 0.071-0.032 0.071-0.071v-17.527c-0-0.019-0.015-0.034-0.034-0.034-0.006 0-0.012 0.002-0.017 0.004l0-0z"></path>
</symbol>

<symbol id="icon-close" viewBox="0 0 32 32">
<path stroke-linejoin="round" stroke-linecap="round" stroke-miterlimit="4" stroke-width="2.6667" d="M24 8l-16 16M8 8l16 16"></path>
</symbol>

</def>

</svg>